<svg width="412" height="203" viewBox="0 0 412 203" fill="none" xmlns="http://www.w3.org/2000/svg">
<path d="M104 58.5C129 33 155 6.00001 205.75 6C256.038 5.99999 282.025 32.5108 306.817 57.8035L307.5 58.5M104 59C129 84.5 155 111.5 205.75 111.5C256.038 111.5 282.025 84.9892 306.817 59.6965L307.5 59" stroke="url(#paint0_linear_3_161)" stroke-width="11" stroke-linecap="square"/>
<path d="M205.5 15C206.625 15 207.74 15.0428 208.843 15.1267C209.522 15.1783 210.068 15.6985 210.173 16.3714L211.306 23.6038C211.404 24.2293 211.885 24.7226 212.503 24.8611C213.995 25.1954 215.45 25.6282 216.86 26.1522C217.482 26.3831 218.187 26.205 218.603 25.689L223.191 20.0041C223.625 19.4667 224.371 19.2924 224.988 19.602C226.657 20.4393 228.264 21.38 229.802 22.4171C230.369 22.7997 230.585 23.5263 230.338 24.1648L227.589 31.2905C227.361 31.8813 227.531 32.5492 227.997 32.9779C229.022 33.9212 229.989 34.9273 230.892 35.9895C231.317 36.4888 232.008 36.6794 232.619 36.4436L239.834 33.6605C240.473 33.4143 241.199 33.6298 241.582 34.1971C242.619 35.7346 243.56 37.3424 244.397 39.0112C244.707 39.6284 244.532 40.3742 243.995 40.8079L237.8 45.8075C237.303 46.2086 237.118 46.8795 237.314 47.4873C237.719 48.7376 238.052 50.0196 238.311 51.3288C238.436 51.9641 238.936 52.4642 239.576 52.5644L247.628 53.826C248.301 53.9314 248.821 54.4769 248.873 55.1561C248.957 56.2597 249 57.3749 249 58.5C249 59.2254 248.982 59.9466 248.946 60.6633C248.912 61.3584 248.386 61.9247 247.699 62.0324L239.576 63.3047C238.936 63.4049 238.436 63.9051 238.311 64.5404C238.052 65.8496 237.719 67.1316 237.314 68.3819C237.118 68.9896 237.303 69.6605 237.8 70.0617L244.392 75.3817C244.92 75.8081 245.098 76.5372 244.807 77.1504C244.032 78.7819 243.159 80.3577 242.194 81.8696C241.819 82.4583 241.078 82.6882 240.426 82.4369L232.62 79.4257C232.009 79.1898 231.318 79.3804 230.893 79.8797C229.99 80.9417 229.023 81.9472 227.997 82.8904C227.531 83.319 227.361 83.9869 227.589 84.5776L230.683 92.597C230.928 93.2304 230.718 93.9513 230.159 94.3367C228.718 95.3299 227.215 96.2384 225.655 97.0551C225.035 97.3799 224.276 97.2092 223.836 96.6644L218.604 90.1803C218.188 89.6642 217.483 89.4861 216.861 89.717C215.45 90.2411 213.995 90.6737 212.503 91.0081C211.885 91.1465 211.404 91.6399 211.306 92.2653L209.994 100.64C209.888 101.316 209.34 101.837 208.658 101.886C207.615 101.961 206.562 102 205.5 102C204.836 102 204.176 101.984 203.52 101.954C202.822 101.922 202.253 101.395 202.145 100.706L200.885 92.6663C200.782 92.0071 200.255 91.4988 199.596 91.3919C197.941 91.1233 196.326 90.7341 194.76 90.2348C194.154 90.0416 193.487 90.2276 193.087 90.7226L187.963 97.072C187.531 97.6076 186.788 97.7828 186.172 97.4766C184.651 96.7215 183.181 95.8805 181.768 94.9592C181.188 94.5808 180.964 93.8453 181.213 93.1989L184.036 85.8825C184.275 85.262 184.075 84.5605 183.561 84.1383C182.182 83.0058 180.895 81.7669 179.71 80.4337C179.283 79.9529 178.605 79.774 178.005 80.0055L170.8 82.7857C170.154 83.0352 169.418 82.8109 169.04 82.2304C168.118 80.8175 167.277 79.3476 166.522 77.8273C166.216 77.2108 166.391 76.4682 166.927 76.0359L172.759 71.3293C173.273 70.9145 173.452 70.2134 173.224 69.5932C172.592 67.8668 172.096 66.0749 171.749 64.23C171.629 63.5883 171.126 63.0808 170.481 62.9798L163.294 61.8544C162.604 61.7464 162.077 61.1768 162.045 60.4792C162.015 59.8232 162 59.1633 162 58.5C162 57.4377 162.038 56.3843 162.113 55.3411C162.162 54.6594 162.683 54.1107 163.359 54.0048L170.482 52.8885C171.127 52.7874 171.629 52.28 171.749 51.6384C172.096 49.7939 172.592 48.0021 173.224 46.276C173.452 45.6558 173.273 44.9547 172.759 44.5398L167.335 40.1626C166.79 39.723 166.619 38.9637 166.944 38.3436C167.761 36.7844 168.669 35.2809 169.662 33.8403C170.048 33.2813 170.769 33.0713 171.402 33.3156L178.005 35.8629C178.605 36.0943 179.283 35.9154 179.71 35.4346C180.895 34.1017 182.182 32.863 183.561 31.7307C184.075 31.3086 184.275 30.6072 184.036 29.9867L181.562 23.5727C181.311 22.9213 181.541 22.1803 182.129 21.8048C183.641 20.8402 185.217 19.9672 186.849 19.192C187.462 18.9007 188.191 19.0793 188.617 19.6076L193.087 25.1465C193.487 25.6415 194.154 25.8276 194.76 25.6343C196.326 25.135 197.941 24.7458 199.597 24.4772C200.255 24.3703 200.782 23.862 200.885 23.2028L201.967 16.3003C202.074 15.6128 202.641 15.0869 203.336 15.0528C204.053 15.0177 204.774 15 205.5 15ZM205.061 42.1172C196.325 42.1174 189.242 49.1995 189.242 57.9355C189.242 66.6714 196.325 73.7528 205.061 73.7529C213.797 73.7529 220.879 66.6715 220.879 57.9355C220.879 49.1994 213.797 42.1172 205.061 42.1172Z" fill="#9FD8EC"/>
<path d="M11.1491 175L16.9446 140.091H30.7173C33.3537 140.091 35.5185 140.597 37.2116 141.608C38.9162 142.608 40.1094 144 40.7912 145.784C41.4844 147.557 41.6435 149.602 41.2685 151.92C40.8821 154.25 40.0412 156.301 38.7457 158.074C37.4616 159.835 35.7912 161.21 33.7344 162.199C31.6776 163.187 29.3026 163.682 26.6094 163.682H17.831L18.8026 157.767H26.3878C27.8196 157.767 29.0412 157.523 30.0526 157.034C31.0753 156.534 31.8878 155.847 32.4901 154.972C33.0923 154.085 33.4844 153.068 33.6662 151.92C33.8594 150.75 33.7969 149.733 33.4787 148.869C33.1605 148.006 32.5753 147.335 31.723 146.858C30.8821 146.369 29.7514 146.125 28.331 146.125H23.3537L18.5298 175H11.1491ZM44.9716 184.818C44.0398 184.818 43.1875 184.744 42.4148 184.597C41.642 184.46 41.0057 184.284 40.5057 184.068L43.0625 178.648C43.8693 178.909 44.6023 179.045 45.2614 179.057C45.9318 179.068 46.5455 178.898 47.1023 178.545C47.6591 178.193 48.1705 177.614 48.6364 176.807L49.2841 175.699L44.375 148.818H51.7386L53.9545 168.08H54.2273L62.9034 148.818H70.8636L55.8807 177.83C55.142 179.25 54.267 180.483 53.2557 181.528C52.2557 182.574 51.0682 183.381 49.6932 183.949C48.3295 184.528 46.7557 184.818 44.9716 184.818ZM93.3807 150.233C93.4375 148.812 93.0227 147.716 92.1364 146.943C91.2614 146.17 89.9375 145.784 88.1648 145.784C86.9602 145.784 85.9148 145.955 85.0284 146.295C84.142 146.625 83.4318 147.085 82.8977 147.676C82.375 148.256 82.0511 148.926 81.9261 149.688C81.8011 150.312 81.8409 150.858 82.0455 151.324C82.2614 151.79 82.5966 152.193 83.0511 152.534C83.517 152.864 84.0682 153.153 84.7045 153.403C85.3409 153.642 86.017 153.847 86.733 154.017L89.733 154.767C91.1989 155.108 92.517 155.562 93.6875 156.131C94.8693 156.699 95.858 157.398 96.6534 158.227C97.4602 159.057 98.0284 160.034 98.358 161.159C98.6875 162.284 98.733 163.574 98.4943 165.028C98.1307 167.165 97.2841 169.017 95.9545 170.585C94.625 172.142 92.8807 173.352 90.7216 174.216C88.5625 175.068 86.0625 175.494 83.2216 175.494C80.4034 175.494 78.0227 175.062 76.0795 174.199C74.1364 173.335 72.7216 172.057 71.8352 170.364C70.9602 168.659 70.6989 166.551 71.0511 164.04H78.1932C78.0682 165.21 78.2386 166.187 78.7045 166.972C79.1818 167.744 79.892 168.33 80.8352 168.727C81.7784 169.114 82.8864 169.307 84.1591 169.307C85.4205 169.307 86.5398 169.125 87.517 168.761C88.5057 168.398 89.3068 167.892 89.9205 167.244C90.5341 166.597 90.9091 165.852 91.0455 165.011C91.1818 164.227 91.0625 163.568 90.6875 163.034C90.3125 162.5 89.7102 162.045 88.8807 161.67C88.0625 161.284 87.0455 160.943 85.8295 160.648L82.1818 159.693C79.3636 158.977 77.233 157.858 75.7898 156.335C74.3466 154.812 73.8295 152.761 74.2386 150.182C74.6023 148.068 75.483 146.222 76.8807 144.642C78.2898 143.051 80.0625 141.818 82.1989 140.943C84.3466 140.057 86.6932 139.614 89.2386 139.614C91.8295 139.614 94.017 140.062 95.8011 140.96C97.5852 141.847 98.8864 143.085 99.7045 144.676C100.523 146.267 100.773 148.119 100.455 150.233H93.3807ZM113.43 175.511C110.737 175.511 108.521 174.943 106.783 173.807C105.055 172.659 103.845 171.068 103.152 169.034C102.47 167 102.351 164.659 102.794 162.011C103.226 159.33 104.129 156.977 105.504 154.955C106.879 152.92 108.624 151.335 110.737 150.199C112.862 149.051 115.249 148.477 117.896 148.477C120.18 148.477 122.112 148.892 123.692 149.722C125.271 150.551 126.43 151.716 127.169 153.216C127.908 154.716 128.158 156.477 127.919 158.5H121.084C121.095 157.205 120.76 156.153 120.078 155.347C119.396 154.54 118.396 154.136 117.078 154.136C115.942 154.136 114.896 154.443 113.942 155.057C112.999 155.659 112.197 156.54 111.538 157.699C110.891 158.858 110.436 160.261 110.175 161.909C109.902 163.58 109.896 165 110.158 166.17C110.419 167.341 110.919 168.233 111.658 168.847C112.396 169.46 113.328 169.767 114.453 169.767C115.294 169.767 116.072 169.597 116.788 169.256C117.516 168.915 118.152 168.42 118.697 167.773C119.243 167.114 119.663 166.324 119.959 165.403H126.811C126.345 167.415 125.499 169.176 124.271 170.688C123.055 172.199 121.527 173.381 119.686 174.233C117.845 175.085 115.76 175.511 113.43 175.511ZM129.841 175L134.205 148.818H141.244L140.477 153.386H140.75C141.5 151.761 142.506 150.534 143.767 149.705C145.04 148.864 146.409 148.443 147.875 148.443C148.239 148.443 148.619 148.466 149.017 148.511C149.426 148.545 149.79 148.602 150.108 148.682L149.017 155.142C148.699 155.028 148.244 154.937 147.653 154.869C147.074 154.79 146.523 154.75 146 154.75C144.943 154.75 143.96 154.983 143.051 155.449C142.142 155.903 141.375 156.54 140.75 157.358C140.136 158.176 139.733 159.119 139.54 160.188L137.102 175H129.841ZM160.126 175.511C157.445 175.511 155.223 174.966 153.462 173.875C151.7 172.773 150.462 171.216 149.746 169.205C149.041 167.182 148.922 164.79 149.388 162.028C149.842 159.335 150.757 156.972 152.132 154.938C153.518 152.903 155.257 151.318 157.348 150.182C159.439 149.045 161.768 148.477 164.337 148.477C166.064 148.477 167.626 148.756 169.024 149.312C170.433 149.858 171.604 150.687 172.536 151.801C173.467 152.903 174.104 154.284 174.445 155.943C174.797 157.602 174.791 159.545 174.428 161.773L174.104 163.767H152.013L152.712 159.267H167.984C168.155 158.222 168.087 157.295 167.78 156.489C167.473 155.682 166.962 155.051 166.246 154.597C165.53 154.131 164.649 153.898 163.604 153.898C162.536 153.898 161.536 154.159 160.604 154.682C159.672 155.205 158.888 155.892 158.251 156.744C157.626 157.585 157.223 158.5 157.041 159.489L156.24 163.955C156.013 165.33 156.058 166.472 156.376 167.381C156.706 168.29 157.274 168.972 158.081 169.426C158.888 169.869 159.911 170.091 161.149 170.091C161.956 170.091 162.712 169.977 163.416 169.75C164.132 169.523 164.768 169.188 165.325 168.744C165.882 168.29 166.337 167.727 166.689 167.057L173.32 167.5C172.706 169.114 171.774 170.523 170.524 171.727C169.274 172.92 167.768 173.852 166.007 174.523C164.257 175.182 162.297 175.511 160.126 175.511ZM188.861 175.511C186.179 175.511 183.957 174.966 182.196 173.875C180.435 172.773 179.196 171.216 178.48 169.205C177.776 167.182 177.656 164.79 178.122 162.028C178.577 159.335 179.491 156.972 180.866 154.938C182.253 152.903 183.991 151.318 186.082 150.182C188.173 149.045 190.503 148.477 193.071 148.477C194.798 148.477 196.361 148.756 197.759 149.312C199.168 149.858 200.338 150.687 201.27 151.801C202.202 152.903 202.838 154.284 203.179 155.943C203.531 157.602 203.526 159.545 203.162 161.773L202.838 163.767H180.747L181.446 159.267H196.719C196.889 158.222 196.821 157.295 196.514 156.489C196.207 155.682 195.696 155.051 194.98 154.597C194.264 154.131 193.384 153.898 192.338 153.898C191.27 153.898 190.27 154.159 189.338 154.682C188.406 155.205 187.622 155.892 186.986 156.744C186.361 157.585 185.957 158.5 185.776 159.489L184.974 163.955C184.747 165.33 184.793 166.472 185.111 167.381C185.44 168.29 186.009 168.972 186.815 169.426C187.622 169.869 188.645 170.091 189.884 170.091C190.69 170.091 191.446 169.977 192.151 169.75C192.866 169.523 193.503 169.188 194.06 168.744C194.616 168.29 195.071 167.727 195.423 167.057L202.054 167.5C201.44 169.114 200.509 170.523 199.259 171.727C198.009 172.92 196.503 173.852 194.741 174.523C192.991 175.182 191.031 175.511 188.861 175.511ZM215.55 159.864L213.027 175H205.783L210.146 148.818H217.05L216.3 153.438H216.589C217.419 151.903 218.589 150.693 220.101 149.807C221.624 148.92 223.357 148.477 225.3 148.477C227.118 148.477 228.635 148.875 229.851 149.67C231.078 150.466 231.942 151.597 232.442 153.062C232.953 154.528 233.038 156.284 232.697 158.33L229.902 175H222.641L225.214 159.625C225.476 158.023 225.271 156.773 224.601 155.875C223.942 154.966 222.879 154.511 221.413 154.511C220.436 154.511 219.538 154.722 218.72 155.142C217.902 155.562 217.214 156.176 216.658 156.983C216.112 157.778 215.743 158.739 215.55 159.864ZM235.727 175L241.523 140.091H255.295C257.932 140.091 260.102 140.557 261.807 141.489C263.523 142.42 264.727 143.744 265.42 145.46C266.125 147.165 266.29 149.176 265.915 151.494C265.528 153.812 264.693 155.801 263.409 157.46C262.136 159.119 260.477 160.398 258.432 161.295C256.398 162.182 254.04 162.625 251.358 162.625H242.136L243.159 156.693H251.17C252.58 156.693 253.784 156.5 254.784 156.114C255.784 155.727 256.574 155.148 257.153 154.375C257.744 153.602 258.131 152.642 258.312 151.494C258.506 150.324 258.438 149.347 258.108 148.562C257.778 147.767 257.182 147.165 256.318 146.756C255.455 146.335 254.318 146.125 252.909 146.125H247.932L243.108 175H235.727ZM257.205 159.114L263.256 175H255.108L249.244 159.114H257.205ZM278.814 175.511C276.132 175.511 273.911 174.966 272.149 173.875C270.388 172.773 269.149 171.216 268.433 169.205C267.729 167.182 267.609 164.79 268.075 162.028C268.53 159.335 269.445 156.972 270.82 154.938C272.206 152.903 273.945 151.318 276.036 150.182C278.126 149.045 280.456 148.477 283.024 148.477C284.751 148.477 286.314 148.756 287.712 149.312C289.121 149.858 290.291 150.687 291.223 151.801C292.155 152.903 292.791 154.284 293.132 155.943C293.484 157.602 293.479 159.545 293.115 161.773L292.791 163.767H270.7L271.399 159.267H286.672C286.842 158.222 286.774 157.295 286.467 156.489C286.161 155.682 285.649 155.051 284.933 154.597C284.217 154.131 283.337 153.898 282.291 153.898C281.223 153.898 280.223 154.159 279.291 154.682C278.359 155.205 277.575 155.892 276.939 156.744C276.314 157.585 275.911 158.5 275.729 159.489L274.928 163.955C274.7 165.33 274.746 166.472 275.064 167.381C275.393 168.29 275.962 168.972 276.768 169.426C277.575 169.869 278.598 170.091 279.837 170.091C280.643 170.091 281.399 169.977 282.104 169.75C282.82 169.523 283.456 169.188 284.013 168.744C284.57 168.29 285.024 167.727 285.376 167.057L292.007 167.5C291.393 169.114 290.462 170.523 289.212 171.727C287.962 172.92 286.456 173.852 284.695 174.523C282.945 175.182 280.984 175.511 278.814 175.511ZM303.082 175.494C301.423 175.494 299.986 175.205 298.77 174.625C297.565 174.034 296.679 173.159 296.111 172C295.543 170.841 295.401 169.403 295.685 167.688C295.935 166.233 296.406 165.017 297.099 164.04C297.804 163.051 298.662 162.256 299.673 161.653C300.685 161.051 301.804 160.591 303.031 160.273C304.27 159.955 305.548 159.739 306.866 159.625C308.389 159.466 309.628 159.312 310.582 159.165C311.548 159.017 312.27 158.807 312.747 158.534C313.224 158.25 313.514 157.83 313.616 157.273V157.17C313.787 156.102 313.588 155.273 313.02 154.682C312.463 154.08 311.571 153.778 310.344 153.778C309.048 153.778 307.946 154.062 307.037 154.631C306.139 155.199 305.497 155.92 305.111 156.795L298.497 156.25C299.088 154.659 299.98 153.284 301.173 152.125C302.378 150.955 303.827 150.057 305.52 149.432C307.213 148.795 309.111 148.477 311.213 148.477C312.668 148.477 314.026 148.648 315.287 148.989C316.56 149.33 317.656 149.858 318.577 150.574C319.509 151.29 320.179 152.21 320.588 153.335C321.009 154.449 321.094 155.784 320.844 157.341L317.895 175H311.009L311.622 171.369H311.418C310.861 172.188 310.179 172.909 309.372 173.534C308.565 174.148 307.639 174.631 306.594 174.983C305.548 175.324 304.378 175.494 303.082 175.494ZM305.997 170.483C307.054 170.483 308.026 170.273 308.912 169.852C309.81 169.42 310.548 168.841 311.128 168.114C311.719 167.386 312.094 166.562 312.253 165.642L312.696 162.864C312.469 163.011 312.139 163.142 311.707 163.256C311.287 163.369 310.827 163.477 310.327 163.58C309.838 163.67 309.344 163.756 308.844 163.835C308.344 163.903 307.895 163.972 307.497 164.04C306.622 164.165 305.838 164.364 305.145 164.636C304.452 164.909 303.889 165.278 303.457 165.744C303.026 166.199 302.759 166.767 302.656 167.449C302.497 168.438 302.73 169.193 303.355 169.716C303.991 170.227 304.872 170.483 305.997 170.483ZM333.142 175.426C331.142 175.426 329.42 174.915 327.977 173.892C326.545 172.858 325.523 171.341 324.909 169.341C324.307 167.33 324.25 164.864 324.739 161.943C325.239 158.943 326.136 156.449 327.432 154.46C328.727 152.46 330.261 150.966 332.034 149.977C333.807 148.977 335.653 148.477 337.574 148.477C339.028 148.477 340.205 148.727 341.102 149.227C342.011 149.716 342.71 150.33 343.199 151.068C343.688 151.795 344.028 152.511 344.222 153.216H344.443L346.642 140.091H353.886L348.091 175H340.932L341.631 170.807H341.324C340.869 171.534 340.267 172.256 339.517 172.972C338.778 173.676 337.881 174.261 336.824 174.727C335.778 175.193 334.551 175.426 333.142 175.426ZM336.347 169.648C337.506 169.648 338.551 169.33 339.483 168.693C340.415 168.045 341.199 167.142 341.835 165.983C342.472 164.824 342.915 163.466 343.165 161.909C343.426 160.352 343.432 159 343.182 157.852C342.932 156.705 342.443 155.818 341.716 155.193C341 154.568 340.051 154.256 338.869 154.256C337.676 154.256 336.619 154.58 335.699 155.227C334.79 155.875 334.034 156.773 333.432 157.92C332.841 159.068 332.42 160.398 332.17 161.909C331.92 163.432 331.903 164.778 332.119 165.949C332.335 167.108 332.795 168.017 333.5 168.676C334.205 169.324 335.153 169.648 336.347 169.648ZM365.908 175.511C363.226 175.511 361.004 174.966 359.243 173.875C357.482 172.773 356.243 171.216 355.527 169.205C354.822 167.182 354.703 164.79 355.169 162.028C355.624 159.335 356.538 156.972 357.913 154.938C359.3 152.903 361.038 151.318 363.129 150.182C365.22 149.045 367.55 148.477 370.118 148.477C371.845 148.477 373.408 148.756 374.805 149.312C376.214 149.858 377.385 150.687 378.317 151.801C379.249 152.903 379.885 154.284 380.226 155.943C380.578 157.602 380.572 159.545 380.209 161.773L379.885 163.767H357.794L358.493 159.267H373.766C373.936 158.222 373.868 157.295 373.561 156.489C373.254 155.682 372.743 155.051 372.027 154.597C371.311 154.131 370.43 153.898 369.385 153.898C368.317 153.898 367.317 154.159 366.385 154.682C365.453 155.205 364.669 155.892 364.033 156.744C363.408 157.585 363.004 158.5 362.822 159.489L362.021 163.955C361.794 165.33 361.839 166.472 362.158 167.381C362.487 168.29 363.055 168.972 363.862 169.426C364.669 169.869 365.692 170.091 366.93 170.091C367.737 170.091 368.493 169.977 369.197 169.75C369.913 169.523 370.55 169.188 371.107 168.744C371.663 168.29 372.118 167.727 372.47 167.057L379.101 167.5C378.487 169.114 377.555 170.523 376.305 171.727C375.055 172.92 373.55 173.852 371.788 174.523C370.038 175.182 368.078 175.511 365.908 175.511ZM382.778 175L387.142 148.818H394.182L393.415 153.386H393.688C394.438 151.761 395.443 150.534 396.705 149.705C397.977 148.864 399.347 148.443 400.812 148.443C401.176 148.443 401.557 148.466 401.955 148.511C402.364 148.545 402.727 148.602 403.045 148.682L401.955 155.142C401.636 155.028 401.182 154.937 400.591 154.869C400.011 154.79 399.46 154.75 398.938 154.75C397.881 154.75 396.898 154.983 395.989 155.449C395.08 155.903 394.312 156.54 393.688 157.358C393.074 158.176 392.67 159.119 392.477 160.188L390.04 175H382.778Z" fill="url(#paint1_linear_3_161)"/>
<defs>
<linearGradient id="paint0_linear_3_161" x1="124" y1="6" x2="337.19" y2="77.5943" gradientUnits="userSpaceOnUse">
<stop stop-color="#1C4179"/>
<stop offset="0.163462" stop-color="#235095"/>
<stop offset="0.615385" stop-color="#13A0D3"/>
<stop offset="1" stop-color="#00E6FF"/>
</linearGradient>
<linearGradient id="paint1_linear_3_161" x1="40.4914" y1="112" x2="336.73" y2="345.505" gradientUnits="userSpaceOnUse">
<stop stop-color="#1C4179"/>
<stop offset="0.163462" stop-color="#235095"/>
<stop offset="0.615385" stop-color="#13A0D3"/>
<stop offset="1" stop-color="#00E6FF"/>
</linearGradient>
</defs>
</svg>
