<svg width="220" height="117" viewBox="0 0 220 117" fill="none" xmlns="http://www.w3.org/2000/svg">
<path d="M8 58.5C33 33 59 6.00001 109.75 6C160.038 5.99999 186.025 32.5108 210.817 57.8035L211.5 58.5M8 59C33 84.5 59 111.5 109.75 111.5C160.038 111.5 186.025 84.9892 210.817 59.6965L211.5 59" stroke="url(#paint0_linear_3_140)" stroke-width="11" stroke-linecap="square"/>
<path d="M109.5 15C110.625 15 111.74 15.0428 112.843 15.1267C113.522 15.1783 114.068 15.6985 114.173 16.3714L115.306 23.6038C115.404 24.2293 115.885 24.7226 116.503 24.8611C117.995 25.1954 119.45 25.6282 120.86 26.1522C121.482 26.3831 122.187 26.205 122.603 25.689L127.191 20.0041C127.625 19.4667 128.371 19.2924 128.988 19.602C130.657 20.4393 132.264 21.38 133.802 22.4171C134.369 22.7997 134.585 23.5263 134.338 24.1648L131.589 31.2905C131.361 31.8813 131.531 32.5492 131.997 32.9779C133.022 33.9212 133.989 34.9273 134.892 35.9895C135.317 36.4888 136.008 36.6794 136.619 36.4436L143.834 33.6605C144.473 33.4143 145.199 33.6298 145.582 34.1971C146.619 35.7346 147.56 37.3424 148.397 39.0112C148.707 39.6284 148.532 40.3742 147.995 40.8079L141.8 45.8075C141.303 46.2086 141.118 46.8795 141.314 47.4873C141.719 48.7376 142.052 50.0196 142.311 51.3288C142.436 51.9641 142.936 52.4642 143.576 52.5644L151.628 53.826C152.301 53.9314 152.821 54.4769 152.873 55.1561C152.957 56.2597 153 57.3749 153 58.5C153 59.2254 152.982 59.9466 152.946 60.6633C152.912 61.3584 152.386 61.9247 151.699 62.0324L143.576 63.3047C142.936 63.4049 142.436 63.9051 142.311 64.5404C142.052 65.8496 141.719 67.1316 141.314 68.3819C141.118 68.9896 141.303 69.6605 141.8 70.0617L148.392 75.3817C148.92 75.8081 149.098 76.5372 148.807 77.1504C148.032 78.7819 147.159 80.3577 146.194 81.8696C145.819 82.4583 145.078 82.6882 144.426 82.4369L136.62 79.4257C136.009 79.1898 135.318 79.3804 134.893 79.8797C133.99 80.9417 133.023 81.9472 131.997 82.8904C131.531 83.319 131.361 83.9869 131.589 84.5776L134.683 92.597C134.928 93.2304 134.718 93.9513 134.159 94.3367C132.718 95.3299 131.215 96.2384 129.655 97.0551C129.035 97.3799 128.276 97.2092 127.836 96.6644L122.604 90.1803C122.188 89.6642 121.483 89.4861 120.861 89.717C119.45 90.2411 117.995 90.6737 116.503 91.0081C115.885 91.1465 115.404 91.6399 115.306 92.2653L113.994 100.64C113.888 101.316 113.34 101.837 112.658 101.886C111.615 101.961 110.562 102 109.5 102C108.836 102 108.176 101.984 107.52 101.954C106.822 101.922 106.253 101.395 106.145 100.706L104.885 92.6663C104.782 92.0071 104.255 91.4988 103.596 91.3919C101.941 91.1233 100.326 90.7341 98.7601 90.2348C98.154 90.0416 97.4867 90.2276 97.0872 90.7226L91.9631 97.072C91.5308 97.6076 90.7882 97.7828 90.1717 97.4766C88.6514 96.7215 87.1814 95.8805 85.7685 94.9592C85.1881 94.5808 84.9638 93.8453 85.2132 93.1989L88.0357 85.8825C88.2751 85.262 88.075 84.5605 87.5611 84.1383C86.1823 83.0058 84.8946 81.7669 83.7104 80.4337C83.2834 79.9529 82.605 79.774 82.0051 80.0055L74.8002 82.7857C74.1537 83.0352 73.4182 82.8109 73.0397 82.2304C72.1185 80.8175 71.2775 79.3476 70.5224 77.8273C70.2162 77.2108 70.3914 76.4682 70.927 76.0359L76.7587 71.3293C77.2726 70.9145 77.4515 70.2134 77.2243 69.5932C76.5919 67.8668 76.0958 66.0749 75.7493 64.23C75.6288 63.5883 75.1264 63.0808 74.4813 62.9798L67.2936 61.8544C66.6038 61.7464 66.0769 61.1768 66.0452 60.4792C66.0154 59.8232 66 59.1633 66 58.5C66 57.4377 66.0384 56.3843 66.1134 55.3411C66.1624 54.6594 66.6834 54.1107 67.3587 54.0048L74.4816 52.8885C75.1266 52.7874 75.6288 52.28 75.7493 51.6384C76.0959 49.7939 76.5919 48.0021 77.2243 46.276C77.4515 45.6558 77.2726 44.9547 76.7586 44.5398L71.3345 40.1626C70.7898 39.723 70.6191 38.9637 70.9439 38.3436C71.7607 36.7844 72.6692 35.2809 73.6624 33.8403C74.0477 33.2813 74.7686 33.0713 75.402 33.3156L82.0052 35.8629C82.6051 36.0943 83.2833 35.9154 83.7104 35.4346C84.8945 34.1017 86.1824 32.863 87.5611 31.7307C88.0751 31.3086 88.2751 30.6072 88.0358 29.9867L85.562 23.5727C85.3107 22.9213 85.5407 22.1803 86.1293 21.8048C87.6413 20.8402 89.2171 19.9672 90.8486 19.192C91.4618 18.9007 92.191 19.0793 92.6173 19.6076L97.0872 25.1465C97.4867 25.6415 98.154 25.8276 98.7601 25.6343C100.326 25.135 101.941 24.7458 103.597 24.4772C104.255 24.3703 104.782 23.862 104.885 23.2028L105.967 16.3003C106.074 15.6128 106.641 15.0869 107.336 15.0528C108.053 15.0177 108.774 15 109.5 15ZM109.061 42.1172C100.325 42.1174 93.2422 49.1995 93.2422 57.9355C93.2425 66.6714 100.325 73.7528 109.061 73.7529C117.797 73.7529 124.879 66.6715 124.879 57.9355C124.879 49.1994 117.797 42.1172 109.061 42.1172Z" fill="#9FD8EC"/>
<defs>
<linearGradient id="paint0_linear_3_140" x1="28" y1="6" x2="241.19" y2="77.5943" gradientUnits="userSpaceOnUse">
<stop stop-color="#1C4179"/>
<stop offset="0.163462" stop-color="#235095"/>
<stop offset="0.615385" stop-color="#13A0D3"/>
<stop offset="1" stop-color="#00E6FF"/>
</linearGradient>
</defs>
</svg>
