<svg width="645" height="117" viewBox="0 0 645 117" fill="none" xmlns="http://www.w3.org/2000/svg">
<path d="M8 58.5C33 33 59 6.00001 109.75 6C160.038 5.99999 186.025 32.5108 210.817 57.8035L211.5 58.5M8 59C33 84.5 59 111.5 109.75 111.5C160.038 111.5 186.025 84.9892 210.817 59.6965L211.5 59" stroke="url(#paint0_linear_3_126)" stroke-width="11" stroke-linecap="square"/>
<path d="M109.5 15C110.625 15 111.74 15.0428 112.843 15.1267C113.522 15.1783 114.068 15.6985 114.173 16.3714L115.306 23.6038C115.404 24.2293 115.885 24.7226 116.503 24.8611C117.995 25.1954 119.45 25.6282 120.86 26.1522C121.482 26.3831 122.187 26.205 122.603 25.689L127.191 20.0041C127.625 19.4667 128.371 19.2924 128.988 19.602C130.657 20.4393 132.264 21.38 133.802 22.4171C134.369 22.7997 134.585 23.5263 134.338 24.1648L131.589 31.2905C131.361 31.8813 131.531 32.5492 131.997 32.9779C133.022 33.9212 133.989 34.9273 134.892 35.9895C135.317 36.4888 136.008 36.6794 136.619 36.4436L143.834 33.6605C144.473 33.4143 145.199 33.6298 145.582 34.1971C146.619 35.7346 147.56 37.3424 148.397 39.0112C148.707 39.6284 148.532 40.3742 147.995 40.8079L141.8 45.8075C141.303 46.2086 141.118 46.8795 141.314 47.4873C141.719 48.7376 142.052 50.0196 142.311 51.3288C142.436 51.9641 142.936 52.4642 143.576 52.5644L151.628 53.826C152.301 53.9314 152.821 54.4769 152.873 55.1561C152.957 56.2597 153 57.3749 153 58.5C153 59.2254 152.982 59.9466 152.946 60.6633C152.912 61.3584 152.386 61.9247 151.699 62.0324L143.576 63.3047C142.936 63.4049 142.436 63.9051 142.311 64.5404C142.052 65.8496 141.719 67.1316 141.314 68.3819C141.118 68.9896 141.303 69.6605 141.8 70.0617L148.392 75.3817C148.92 75.8081 149.098 76.5372 148.807 77.1504C148.032 78.7819 147.159 80.3577 146.194 81.8696C145.819 82.4583 145.078 82.6882 144.426 82.4369L136.62 79.4257C136.009 79.1898 135.318 79.3804 134.893 79.8797C133.99 80.9417 133.023 81.9472 131.997 82.8904C131.531 83.319 131.361 83.9869 131.589 84.5776L134.683 92.597C134.928 93.2304 134.718 93.9513 134.159 94.3367C132.718 95.3299 131.215 96.2384 129.655 97.0551C129.035 97.3799 128.276 97.2092 127.836 96.6644L122.604 90.1803C122.188 89.6642 121.483 89.4861 120.861 89.717C119.45 90.2411 117.995 90.6737 116.503 91.0081C115.885 91.1465 115.404 91.6399 115.306 92.2653L113.994 100.64C113.888 101.316 113.34 101.837 112.658 101.886C111.615 101.961 110.562 102 109.5 102C108.836 102 108.176 101.984 107.52 101.954C106.822 101.922 106.253 101.395 106.145 100.706L104.885 92.6663C104.782 92.0071 104.255 91.4988 103.596 91.3919C101.941 91.1233 100.326 90.7341 98.7601 90.2348C98.154 90.0416 97.4867 90.2276 97.0872 90.7226L91.9631 97.072C91.5308 97.6076 90.7882 97.7828 90.1717 97.4766C88.6514 96.7215 87.1814 95.8805 85.7685 94.9592C85.1881 94.5808 84.9638 93.8453 85.2132 93.1989L88.0357 85.8825C88.2751 85.262 88.075 84.5605 87.5611 84.1383C86.1823 83.0058 84.8946 81.7669 83.7104 80.4337C83.2834 79.9529 82.605 79.774 82.0051 80.0055L74.8002 82.7857C74.1537 83.0352 73.4182 82.8109 73.0397 82.2304C72.1185 80.8175 71.2775 79.3476 70.5224 77.8273C70.2162 77.2108 70.3914 76.4682 70.927 76.0359L76.7587 71.3293C77.2726 70.9145 77.4515 70.2134 77.2243 69.5932C76.5919 67.8668 76.0958 66.0749 75.7493 64.23C75.6288 63.5883 75.1264 63.0808 74.4813 62.9798L67.2936 61.8544C66.6038 61.7464 66.0769 61.1768 66.0452 60.4792C66.0154 59.8232 66 59.1633 66 58.5C66 57.4377 66.0384 56.3843 66.1134 55.3411C66.1624 54.6594 66.6834 54.1107 67.3587 54.0048L74.4816 52.8885C75.1266 52.7874 75.6288 52.28 75.7493 51.6384C76.0959 49.7939 76.5919 48.0021 77.2243 46.276C77.4515 45.6558 77.2726 44.9547 76.7586 44.5398L71.3345 40.1626C70.7898 39.723 70.6191 38.9637 70.9439 38.3436C71.7607 36.7844 72.6692 35.2809 73.6624 33.8403C74.0477 33.2813 74.7686 33.0713 75.402 33.3156L82.0052 35.8629C82.6051 36.0943 83.2833 35.9154 83.7104 35.4346C84.8945 34.1017 86.1824 32.863 87.5611 31.7307C88.0751 31.3086 88.2751 30.6072 88.0358 29.9867L85.562 23.5727C85.3107 22.9213 85.5407 22.1803 86.1293 21.8048C87.6413 20.8402 89.2171 19.9672 90.8486 19.192C91.4618 18.9007 92.191 19.0793 92.6173 19.6076L97.0872 25.1465C97.4867 25.6415 98.154 25.8276 98.7601 25.6343C100.326 25.135 101.941 24.7458 103.597 24.4772C104.255 24.3703 104.782 23.862 104.885 23.2028L105.967 16.3003C106.074 15.6128 106.641 15.0869 107.336 15.0528C108.053 15.0177 108.774 15 109.5 15ZM109.061 42.1172C100.325 42.1174 93.2422 49.1995 93.2422 57.9355C93.2425 66.6714 100.325 73.7528 109.061 73.7529C117.797 73.7529 124.879 66.6715 124.879 57.9355C124.879 49.1994 117.797 42.1172 109.061 42.1172Z" fill="#9FD8EC"/>
<path d="M244.149 77L249.945 42.0909H263.717C266.354 42.0909 268.518 42.5966 270.212 43.608C271.916 44.608 273.109 46 273.791 47.7841C274.484 49.5568 274.643 51.6023 274.268 53.9205C273.882 56.25 273.041 58.3011 271.746 60.0739C270.462 61.8352 268.791 63.2102 266.734 64.1989C264.678 65.1875 262.303 65.6818 259.609 65.6818H250.831L251.803 59.767H259.388C260.82 59.767 262.041 59.5227 263.053 59.0341C264.075 58.5341 264.888 57.8466 265.49 56.9716C266.092 56.0852 266.484 55.0682 266.666 53.9205C266.859 52.75 266.797 51.733 266.479 50.8693C266.161 50.0057 265.575 49.3352 264.723 48.858C263.882 48.3693 262.751 48.125 261.331 48.125H256.354L251.53 77H244.149ZM277.972 86.8182C277.04 86.8182 276.188 86.7443 275.415 86.5966C274.642 86.4602 274.006 86.2841 273.506 86.0682L276.062 80.6477C276.869 80.9091 277.602 81.0455 278.261 81.0568C278.932 81.0682 279.545 80.8977 280.102 80.5455C280.659 80.1932 281.17 79.6136 281.636 78.8068L282.284 77.6989L277.375 50.8182H284.739L286.955 70.0795H287.227L295.903 50.8182H303.864L288.881 79.8295C288.142 81.25 287.267 82.483 286.256 83.5284C285.256 84.5739 284.068 85.3807 282.693 85.9489C281.33 86.5284 279.756 86.8182 277.972 86.8182ZM326.381 52.233C326.438 50.8125 326.023 49.7159 325.136 48.9432C324.261 48.1705 322.938 47.7841 321.165 47.7841C319.96 47.7841 318.915 47.9545 318.028 48.2955C317.142 48.625 316.432 49.0852 315.898 49.6761C315.375 50.2557 315.051 50.9261 314.926 51.6875C314.801 52.3125 314.841 52.858 315.045 53.3239C315.261 53.7898 315.597 54.1932 316.051 54.5341C316.517 54.8636 317.068 55.1534 317.705 55.4034C318.341 55.642 319.017 55.8466 319.733 56.017L322.733 56.767C324.199 57.108 325.517 57.5625 326.688 58.1307C327.869 58.6989 328.858 59.3977 329.653 60.2273C330.46 61.0568 331.028 62.0341 331.358 63.1591C331.688 64.2841 331.733 65.5739 331.494 67.0284C331.131 69.1648 330.284 71.017 328.955 72.5852C327.625 74.142 325.881 75.3523 323.722 76.2159C321.563 77.0682 319.063 77.4943 316.222 77.4943C313.403 77.4943 311.023 77.0625 309.08 76.1989C307.136 75.3352 305.722 74.0568 304.835 72.3636C303.96 70.6591 303.699 68.5511 304.051 66.0398H311.193C311.068 67.2102 311.239 68.1875 311.705 68.9716C312.182 69.7443 312.892 70.3295 313.835 70.7273C314.778 71.1136 315.886 71.3068 317.159 71.3068C318.42 71.3068 319.54 71.125 320.517 70.7614C321.506 70.3977 322.307 69.892 322.92 69.2443C323.534 68.5966 323.909 67.8523 324.045 67.0114C324.182 66.2273 324.062 65.5682 323.688 65.0341C323.312 64.5 322.71 64.0455 321.881 63.6705C321.063 63.2841 320.045 62.9432 318.83 62.6477L315.182 61.6932C312.364 60.9773 310.233 59.858 308.79 58.3352C307.347 56.8125 306.83 54.7614 307.239 52.1818C307.602 50.0682 308.483 48.2216 309.881 46.642C311.29 45.0511 313.062 43.8182 315.199 42.9432C317.347 42.0568 319.693 41.6136 322.239 41.6136C324.83 41.6136 327.017 42.0625 328.801 42.9602C330.585 43.8466 331.886 45.0852 332.705 46.6761C333.523 48.267 333.773 50.1193 333.455 52.233H326.381ZM346.43 77.5114C343.737 77.5114 341.521 76.9432 339.783 75.8068C338.055 74.6591 336.845 73.0682 336.152 71.0341C335.47 69 335.351 66.6591 335.794 64.0114C336.226 61.3295 337.129 58.9773 338.504 56.9545C339.879 54.9205 341.624 53.3352 343.737 52.1989C345.862 51.0511 348.249 50.4773 350.896 50.4773C353.18 50.4773 355.112 50.892 356.692 51.7216C358.271 52.5511 359.43 53.7159 360.169 55.2159C360.908 56.7159 361.158 58.4773 360.919 60.5H354.084C354.095 59.2045 353.76 58.1534 353.078 57.3466C352.396 56.5398 351.396 56.1364 350.078 56.1364C348.942 56.1364 347.896 56.4432 346.942 57.0568C345.999 57.6591 345.197 58.5398 344.538 59.6989C343.891 60.858 343.436 62.2614 343.175 63.9091C342.902 65.5795 342.896 67 343.158 68.1705C343.419 69.3409 343.919 70.233 344.658 70.8466C345.396 71.4602 346.328 71.767 347.453 71.767C348.294 71.767 349.072 71.5966 349.788 71.2557C350.516 70.9148 351.152 70.4205 351.697 69.7727C352.243 69.1136 352.663 68.3239 352.959 67.4034H359.811C359.345 69.4148 358.499 71.1761 357.271 72.6875C356.055 74.1989 354.527 75.3807 352.686 76.233C350.845 77.0852 348.76 77.5114 346.43 77.5114ZM362.841 77L367.205 50.8182H374.244L373.477 55.3864H373.75C374.5 53.7614 375.506 52.5341 376.767 51.7045C378.04 50.8636 379.409 50.4432 380.875 50.4432C381.239 50.4432 381.619 50.4659 382.017 50.5114C382.426 50.5455 382.79 50.6023 383.108 50.6818L382.017 57.142C381.699 57.0284 381.244 56.9375 380.653 56.8693C380.074 56.7898 379.523 56.75 379 56.75C377.943 56.75 376.96 56.983 376.051 57.4489C375.142 57.9034 374.375 58.5398 373.75 59.358C373.136 60.1761 372.733 61.1193 372.54 62.1875L370.102 77H362.841ZM393.126 77.5114C390.445 77.5114 388.223 76.9659 386.462 75.875C384.7 74.7727 383.462 73.2159 382.746 71.2045C382.041 69.1818 381.922 66.7898 382.388 64.0284C382.842 61.3352 383.757 58.9716 385.132 56.9375C386.518 54.9034 388.257 53.3182 390.348 52.1818C392.439 51.0455 394.768 50.4773 397.337 50.4773C399.064 50.4773 400.626 50.7557 402.024 51.3125C403.433 51.858 404.604 52.6875 405.536 53.8011C406.467 54.9034 407.104 56.2841 407.445 57.9432C407.797 59.6023 407.791 61.5455 407.428 63.7727L407.104 65.767H385.013L385.712 61.267H400.984C401.155 60.2216 401.087 59.2955 400.78 58.4886C400.473 57.6818 399.962 57.0511 399.246 56.5966C398.53 56.1307 397.649 55.8977 396.604 55.8977C395.536 55.8977 394.536 56.1591 393.604 56.6818C392.672 57.2045 391.888 57.892 391.251 58.7443C390.626 59.5852 390.223 60.5 390.041 61.4886L389.24 65.9545C389.013 67.3295 389.058 68.4716 389.376 69.3807C389.706 70.2898 390.274 70.9716 391.081 71.4261C391.888 71.8693 392.911 72.0909 394.149 72.0909C394.956 72.0909 395.712 71.9773 396.416 71.75C397.132 71.5227 397.768 71.1875 398.325 70.7443C398.882 70.2898 399.337 69.7273 399.689 69.0568L406.32 69.5C405.706 71.1136 404.774 72.5227 403.524 73.7273C402.274 74.9205 400.768 75.8523 399.007 76.5227C397.257 77.1818 395.297 77.5114 393.126 77.5114ZM421.861 77.5114C419.179 77.5114 416.957 76.9659 415.196 75.875C413.435 74.7727 412.196 73.2159 411.48 71.2045C410.776 69.1818 410.656 66.7898 411.122 64.0284C411.577 61.3352 412.491 58.9716 413.866 56.9375C415.253 54.9034 416.991 53.3182 419.082 52.1818C421.173 51.0455 423.503 50.4773 426.071 50.4773C427.798 50.4773 429.361 50.7557 430.759 51.3125C432.168 51.858 433.338 52.6875 434.27 53.8011C435.202 54.9034 435.838 56.2841 436.179 57.9432C436.531 59.6023 436.526 61.5455 436.162 63.7727L435.838 65.767H413.747L414.446 61.267H429.719C429.889 60.2216 429.821 59.2955 429.514 58.4886C429.207 57.6818 428.696 57.0511 427.98 56.5966C427.264 56.1307 426.384 55.8977 425.338 55.8977C424.27 55.8977 423.27 56.1591 422.338 56.6818C421.406 57.2045 420.622 57.892 419.986 58.7443C419.361 59.5852 418.957 60.5 418.776 61.4886L417.974 65.9545C417.747 67.3295 417.793 68.4716 418.111 69.3807C418.44 70.2898 419.009 70.9716 419.815 71.4261C420.622 71.8693 421.645 72.0909 422.884 72.0909C423.69 72.0909 424.446 71.9773 425.151 71.75C425.866 71.5227 426.503 71.1875 427.06 70.7443C427.616 70.2898 428.071 69.7273 428.423 69.0568L435.054 69.5C434.44 71.1136 433.509 72.5227 432.259 73.7273C431.009 74.9205 429.503 75.8523 427.741 76.5227C425.991 77.1818 424.031 77.5114 421.861 77.5114ZM448.55 61.8636L446.027 77H438.783L443.146 50.8182H450.05L449.3 55.4375H449.589C450.419 53.9034 451.589 52.6932 453.101 51.8068C454.624 50.9205 456.357 50.4773 458.3 50.4773C460.118 50.4773 461.635 50.875 462.851 51.6705C464.078 52.4659 464.942 53.5966 465.442 55.0625C465.953 56.5284 466.038 58.2841 465.697 60.3295L462.902 77H455.641L458.214 61.625C458.476 60.0227 458.271 58.7727 457.601 57.875C456.942 56.9659 455.879 56.5114 454.413 56.5114C453.436 56.5114 452.538 56.7216 451.72 57.142C450.902 57.5625 450.214 58.1761 449.658 58.983C449.112 59.7784 448.743 60.7386 448.55 61.8636ZM468.727 77L474.523 42.0909H488.295C490.932 42.0909 493.102 42.5568 494.807 43.4886C496.523 44.4205 497.727 45.7443 498.42 47.4602C499.125 49.1648 499.29 51.1761 498.915 53.4943C498.528 55.8125 497.693 57.8011 496.409 59.4602C495.136 61.1193 493.477 62.3977 491.432 63.2955C489.398 64.1818 487.04 64.625 484.358 64.625H475.136L476.159 58.6932H484.17C485.58 58.6932 486.784 58.5 487.784 58.1136C488.784 57.7273 489.574 57.1477 490.153 56.375C490.744 55.6023 491.131 54.642 491.312 53.4943C491.506 52.3239 491.438 51.3466 491.108 50.5625C490.778 49.767 490.182 49.1648 489.318 48.7557C488.455 48.3352 487.318 48.125 485.909 48.125H480.932L476.108 77H468.727ZM490.205 61.1136L496.256 77H488.108L482.244 61.1136H490.205ZM511.814 77.5114C509.132 77.5114 506.911 76.9659 505.149 75.875C503.388 74.7727 502.149 73.2159 501.433 71.2045C500.729 69.1818 500.609 66.7898 501.075 64.0284C501.53 61.3352 502.445 58.9716 503.82 56.9375C505.206 54.9034 506.945 53.3182 509.036 52.1818C511.126 51.0455 513.456 50.4773 516.024 50.4773C517.751 50.4773 519.314 50.7557 520.712 51.3125C522.121 51.858 523.291 52.6875 524.223 53.8011C525.155 54.9034 525.791 56.2841 526.132 57.9432C526.484 59.6023 526.479 61.5455 526.115 63.7727L525.791 65.767H503.7L504.399 61.267H519.672C519.842 60.2216 519.774 59.2955 519.467 58.4886C519.161 57.6818 518.649 57.0511 517.933 56.5966C517.217 56.1307 516.337 55.8977 515.291 55.8977C514.223 55.8977 513.223 56.1591 512.291 56.6818C511.359 57.2045 510.575 57.892 509.939 58.7443C509.314 59.5852 508.911 60.5 508.729 61.4886L507.928 65.9545C507.7 67.3295 507.746 68.4716 508.064 69.3807C508.393 70.2898 508.962 70.9716 509.768 71.4261C510.575 71.8693 511.598 72.0909 512.837 72.0909C513.643 72.0909 514.399 71.9773 515.104 71.75C515.82 71.5227 516.456 71.1875 517.013 70.7443C517.57 70.2898 518.024 69.7273 518.376 69.0568L525.007 69.5C524.393 71.1136 523.462 72.5227 522.212 73.7273C520.962 74.9205 519.456 75.8523 517.695 76.5227C515.945 77.1818 513.984 77.5114 511.814 77.5114ZM536.082 77.4943C534.423 77.4943 532.986 77.2045 531.77 76.625C530.565 76.0341 529.679 75.1591 529.111 74C528.543 72.8409 528.401 71.4034 528.685 69.6875C528.935 68.233 529.406 67.017 530.099 66.0398C530.804 65.0511 531.662 64.2557 532.673 63.6534C533.685 63.0511 534.804 62.5909 536.031 62.2727C537.27 61.9545 538.548 61.7386 539.866 61.625C541.389 61.4659 542.628 61.3125 543.582 61.1648C544.548 61.017 545.27 60.8068 545.747 60.5341C546.224 60.25 546.514 59.8295 546.616 59.2727V59.1705C546.787 58.1023 546.588 57.2727 546.02 56.6818C545.463 56.0795 544.571 55.7784 543.344 55.7784C542.048 55.7784 540.946 56.0625 540.037 56.6307C539.139 57.1989 538.497 57.9205 538.111 58.7955L531.497 58.25C532.088 56.6591 532.98 55.2841 534.173 54.125C535.378 52.9545 536.827 52.0568 538.52 51.4318C540.213 50.7955 542.111 50.4773 544.213 50.4773C545.668 50.4773 547.026 50.6477 548.287 50.9886C549.56 51.3295 550.656 51.858 551.577 52.5739C552.509 53.2898 553.179 54.2102 553.588 55.3352C554.009 56.4489 554.094 57.7841 553.844 59.3409L550.895 77H544.009L544.622 73.3693H544.418C543.861 74.1875 543.179 74.9091 542.372 75.5341C541.565 76.1477 540.639 76.6307 539.594 76.983C538.548 77.3239 537.378 77.4943 536.082 77.4943ZM538.997 72.483C540.054 72.483 541.026 72.2727 541.912 71.8523C542.81 71.4205 543.548 70.8409 544.128 70.1136C544.719 69.3864 545.094 68.5625 545.253 67.642L545.696 64.8636C545.469 65.0114 545.139 65.142 544.707 65.2557C544.287 65.3693 543.827 65.4773 543.327 65.5795C542.838 65.6705 542.344 65.7557 541.844 65.8352C541.344 65.9034 540.895 65.9716 540.497 66.0398C539.622 66.1648 538.838 66.3636 538.145 66.6364C537.452 66.9091 536.889 67.2784 536.457 67.7443C536.026 68.1989 535.759 68.767 535.656 69.4489C535.497 70.4375 535.73 71.1932 536.355 71.7159C536.991 72.2273 537.872 72.483 538.997 72.483ZM566.142 77.4261C564.142 77.4261 562.42 76.9148 560.977 75.892C559.545 74.858 558.523 73.3409 557.909 71.3409C557.307 69.3295 557.25 66.8636 557.739 63.9432C558.239 60.9432 559.136 58.4489 560.432 56.4602C561.727 54.4602 563.261 52.9659 565.034 51.9773C566.807 50.9773 568.653 50.4773 570.574 50.4773C572.028 50.4773 573.205 50.7273 574.102 51.2273C575.011 51.7159 575.71 52.3295 576.199 53.0682C576.688 53.7955 577.028 54.5114 577.222 55.2159H577.443L579.642 42.0909H586.886L581.091 77H573.932L574.631 72.8068H574.324C573.869 73.5341 573.267 74.2557 572.517 74.9716C571.778 75.6761 570.881 76.2614 569.824 76.7273C568.778 77.1932 567.551 77.4261 566.142 77.4261ZM569.347 71.6477C570.506 71.6477 571.551 71.3295 572.483 70.6932C573.415 70.0455 574.199 69.142 574.835 67.983C575.472 66.8239 575.915 65.4659 576.165 63.9091C576.426 62.3523 576.432 61 576.182 59.8523C575.932 58.7045 575.443 57.8182 574.716 57.1932C574 56.5682 573.051 56.2557 571.869 56.2557C570.676 56.2557 569.619 56.5795 568.699 57.2273C567.79 57.875 567.034 58.7727 566.432 59.9205C565.841 61.0682 565.42 62.3977 565.17 63.9091C564.92 65.4318 564.903 66.7784 565.119 67.9489C565.335 69.108 565.795 70.017 566.5 70.6761C567.205 71.3239 568.153 71.6477 569.347 71.6477ZM598.908 77.5114C596.226 77.5114 594.004 76.9659 592.243 75.875C590.482 74.7727 589.243 73.2159 588.527 71.2045C587.822 69.1818 587.703 66.7898 588.169 64.0284C588.624 61.3352 589.538 58.9716 590.913 56.9375C592.3 54.9034 594.038 53.3182 596.129 52.1818C598.22 51.0455 600.55 50.4773 603.118 50.4773C604.845 50.4773 606.408 50.7557 607.805 51.3125C609.214 51.858 610.385 52.6875 611.317 53.8011C612.249 54.9034 612.885 56.2841 613.226 57.9432C613.578 59.6023 613.572 61.5455 613.209 63.7727L612.885 65.767H590.794L591.493 61.267H606.766C606.936 60.2216 606.868 59.2955 606.561 58.4886C606.254 57.6818 605.743 57.0511 605.027 56.5966C604.311 56.1307 603.43 55.8977 602.385 55.8977C601.317 55.8977 600.317 56.1591 599.385 56.6818C598.453 57.2045 597.669 57.892 597.033 58.7443C596.408 59.5852 596.004 60.5 595.822 61.4886L595.021 65.9545C594.794 67.3295 594.839 68.4716 595.158 69.3807C595.487 70.2898 596.055 70.9716 596.862 71.4261C597.669 71.8693 598.692 72.0909 599.93 72.0909C600.737 72.0909 601.493 71.9773 602.197 71.75C602.913 71.5227 603.55 71.1875 604.107 70.7443C604.663 70.2898 605.118 69.7273 605.47 69.0568L612.101 69.5C611.487 71.1136 610.555 72.5227 609.305 73.7273C608.055 74.9205 606.55 75.8523 604.788 76.5227C603.038 77.1818 601.078 77.5114 598.908 77.5114ZM615.778 77L620.142 50.8182H627.182L626.415 55.3864H626.688C627.438 53.7614 628.443 52.5341 629.705 51.7045C630.977 50.8636 632.347 50.4432 633.812 50.4432C634.176 50.4432 634.557 50.4659 634.955 50.5114C635.364 50.5455 635.727 50.6023 636.045 50.6818L634.955 57.142C634.636 57.0284 634.182 56.9375 633.591 56.8693C633.011 56.7898 632.46 56.75 631.938 56.75C630.881 56.75 629.898 56.983 628.989 57.4489C628.08 57.9034 627.312 58.5398 626.688 59.358C626.074 60.1761 625.67 61.1193 625.477 62.1875L623.04 77H615.778Z" fill="url(#paint1_linear_3_126)"/>
<defs>
<linearGradient id="paint0_linear_3_126" x1="28" y1="6" x2="241.19" y2="77.5943" gradientUnits="userSpaceOnUse">
<stop stop-color="#1C4179"/>
<stop offset="0.163462" stop-color="#235095"/>
<stop offset="0.615385" stop-color="#13A0D3"/>
<stop offset="1" stop-color="#00E6FF"/>
</linearGradient>
<linearGradient id="paint1_linear_3_126" x1="273.491" y1="14" x2="569.73" y2="247.505" gradientUnits="userSpaceOnUse">
<stop stop-color="#1C4179"/>
<stop offset="0.163462" stop-color="#235095"/>
<stop offset="0.615385" stop-color="#13A0D3"/>
<stop offset="1" stop-color="#00E6FF"/>
</linearGradient>
</defs>
</svg>
