<svg width="412" height="202" viewBox="0 0 412 202" fill="none" xmlns="http://www.w3.org/2000/svg">
<path d="M104 143.5C129 118 155 91 205.75 91C256.038 91 282.025 117.511 306.817 142.803L307.5 143.5M104 144C129 169.5 155 196.5 205.75 196.5C256.038 196.5 282.025 169.989 306.817 144.697L307.5 144" stroke="url(#paint0_linear_3_150)" stroke-width="11" stroke-linecap="square"/>
<path d="M205.5 100C206.625 100 207.74 100.043 208.843 100.127C209.522 100.178 210.068 100.698 210.173 101.371L211.306 108.604C211.404 109.229 211.885 109.723 212.503 109.861C213.995 110.195 215.45 110.628 216.86 111.152C217.482 111.383 218.187 111.205 218.603 110.689L223.191 105.004C223.625 104.467 224.371 104.292 224.988 104.602C226.657 105.439 228.264 106.38 229.802 107.417C230.369 107.8 230.585 108.526 230.338 109.165L227.589 116.29C227.361 116.881 227.531 117.549 227.997 117.978C229.022 118.921 229.989 119.927 230.892 120.99C231.317 121.489 232.008 121.679 232.619 121.444L239.834 118.661C240.473 118.414 241.199 118.63 241.582 119.197C242.619 120.735 243.56 122.342 244.397 124.011C244.707 124.628 244.532 125.374 243.995 125.808L237.8 130.807C237.303 131.209 237.118 131.88 237.314 132.487C237.719 133.738 238.052 135.02 238.311 136.329C238.436 136.964 238.936 137.464 239.576 137.564L247.628 138.826C248.301 138.931 248.821 139.477 248.873 140.156C248.957 141.26 249 142.375 249 143.5C249 144.225 248.982 144.947 248.946 145.663C248.912 146.358 248.386 146.925 247.699 147.032L239.576 148.305C238.936 148.405 238.436 148.905 238.311 149.54C238.052 150.85 237.719 152.132 237.314 153.382C237.118 153.99 237.303 154.661 237.8 155.062L244.392 160.382C244.92 160.808 245.098 161.537 244.807 162.15C244.032 163.782 243.159 165.358 242.194 166.87C241.819 167.458 241.078 167.688 240.426 167.437L232.62 164.426C232.009 164.19 231.318 164.38 230.893 164.88C229.99 165.942 229.023 166.947 227.997 167.89C227.531 168.319 227.361 168.987 227.589 169.578L230.683 177.597C230.928 178.23 230.718 178.951 230.159 179.337C228.718 180.33 227.215 181.238 225.655 182.055C225.035 182.38 224.276 182.209 223.836 181.664L218.604 175.18C218.188 174.664 217.483 174.486 216.861 174.717C215.45 175.241 213.995 175.674 212.503 176.008C211.885 176.146 211.404 176.64 211.306 177.265L209.994 185.64C209.888 186.316 209.34 186.837 208.658 186.886C207.615 186.961 206.562 187 205.5 187C204.836 187 204.176 186.984 203.52 186.954C202.822 186.922 202.253 186.395 202.145 185.706L200.885 177.666C200.782 177.007 200.255 176.499 199.596 176.392C197.941 176.123 196.326 175.734 194.76 175.235C194.154 175.042 193.487 175.228 193.087 175.723L187.963 182.072C187.531 182.608 186.788 182.783 186.172 182.477C184.651 181.721 183.181 180.881 181.768 179.959C181.188 179.581 180.964 178.845 181.213 178.199L184.036 170.883C184.275 170.262 184.075 169.56 183.561 169.138C182.182 168.006 180.895 166.767 179.71 165.434C179.283 164.953 178.605 164.774 178.005 165.005L170.8 167.786C170.154 168.035 169.418 167.811 169.04 167.23C168.118 165.817 167.277 164.348 166.522 162.827C166.216 162.211 166.391 161.468 166.927 161.036L172.759 156.329C173.273 155.914 173.452 155.213 173.224 154.593C172.592 152.867 172.096 151.075 171.749 149.23C171.629 148.588 171.126 148.081 170.481 147.98L163.294 146.854C162.604 146.746 162.077 146.177 162.045 145.479C162.015 144.823 162 144.163 162 143.5C162 142.438 162.038 141.384 162.113 140.341C162.162 139.659 162.683 139.111 163.359 139.005L170.482 137.888C171.127 137.787 171.629 137.28 171.749 136.638C172.096 134.794 172.592 133.002 173.224 131.276C173.452 130.656 173.273 129.955 172.759 129.54L167.335 125.163C166.79 124.723 166.619 123.964 166.944 123.344C167.761 121.784 168.669 120.281 169.662 118.84C170.048 118.281 170.769 118.071 171.402 118.316L178.005 120.863C178.605 121.094 179.283 120.915 179.71 120.435C180.895 119.102 182.182 117.863 183.561 116.731C184.075 116.309 184.275 115.607 184.036 114.987L181.562 108.573C181.311 107.921 181.541 107.18 182.129 106.805C183.641 105.84 185.217 104.967 186.849 104.192C187.462 103.901 188.191 104.079 188.617 104.608L193.087 110.146C193.487 110.642 194.154 110.828 194.76 110.634C196.326 110.135 197.941 109.746 199.597 109.477C200.255 109.37 200.782 108.862 200.885 108.203L201.967 101.3C202.074 100.613 202.641 100.087 203.336 100.053C204.053 100.018 204.774 100 205.5 100ZM205.061 127.117C196.325 127.117 189.242 134.2 189.242 142.936C189.242 151.671 196.325 158.753 205.061 158.753C213.797 158.753 220.879 151.671 220.879 142.936C220.879 134.199 213.797 127.117 205.061 127.117Z" fill="#9FD8EC"/>
<path d="M11.1491 63L16.9446 28.0909H30.7173C33.3537 28.0909 35.5185 28.5966 37.2116 29.608C38.9162 30.608 40.1094 32 40.7912 33.7841C41.4844 35.5568 41.6435 37.6023 41.2685 39.9205C40.8821 42.25 40.0412 44.3011 38.7457 46.0739C37.4616 47.8352 35.7912 49.2102 33.7344 50.1989C31.6776 51.1875 29.3026 51.6818 26.6094 51.6818H17.831L18.8026 45.767H26.3878C27.8196 45.767 29.0412 45.5227 30.0526 45.0341C31.0753 44.5341 31.8878 43.8466 32.4901 42.9716C33.0923 42.0852 33.4844 41.0682 33.6662 39.9205C33.8594 38.75 33.7969 37.733 33.4787 36.8693C33.1605 36.0057 32.5753 35.3352 31.723 34.858C30.8821 34.3693 29.7514 34.125 28.331 34.125H23.3537L18.5298 63H11.1491ZM44.9716 72.8182C44.0398 72.8182 43.1875 72.7443 42.4148 72.5966C41.642 72.4602 41.0057 72.2841 40.5057 72.0682L43.0625 66.6477C43.8693 66.9091 44.6023 67.0455 45.2614 67.0568C45.9318 67.0682 46.5455 66.8977 47.1023 66.5455C47.6591 66.1932 48.1705 65.6136 48.6364 64.8068L49.2841 63.6989L44.375 36.8182H51.7386L53.9545 56.0795H54.2273L62.9034 36.8182H70.8636L55.8807 65.8295C55.142 67.25 54.267 68.483 53.2557 69.5284C52.2557 70.5739 51.0682 71.3807 49.6932 71.9489C48.3295 72.5284 46.7557 72.8182 44.9716 72.8182ZM93.3807 38.233C93.4375 36.8125 93.0227 35.7159 92.1364 34.9432C91.2614 34.1705 89.9375 33.7841 88.1648 33.7841C86.9602 33.7841 85.9148 33.9545 85.0284 34.2955C84.142 34.625 83.4318 35.0852 82.8977 35.6761C82.375 36.2557 82.0511 36.9261 81.9261 37.6875C81.8011 38.3125 81.8409 38.858 82.0455 39.3239C82.2614 39.7898 82.5966 40.1932 83.0511 40.5341C83.517 40.8636 84.0682 41.1534 84.7045 41.4034C85.3409 41.642 86.017 41.8466 86.733 42.017L89.733 42.767C91.1989 43.108 92.517 43.5625 93.6875 44.1307C94.8693 44.6989 95.858 45.3977 96.6534 46.2273C97.4602 47.0568 98.0284 48.0341 98.358 49.1591C98.6875 50.2841 98.733 51.5739 98.4943 53.0284C98.1307 55.1648 97.2841 57.017 95.9545 58.5852C94.625 60.142 92.8807 61.3523 90.7216 62.2159C88.5625 63.0682 86.0625 63.4943 83.2216 63.4943C80.4034 63.4943 78.0227 63.0625 76.0795 62.1989C74.1364 61.3352 72.7216 60.0568 71.8352 58.3636C70.9602 56.6591 70.6989 54.5511 71.0511 52.0398H78.1932C78.0682 53.2102 78.2386 54.1875 78.7045 54.9716C79.1818 55.7443 79.892 56.3295 80.8352 56.7273C81.7784 57.1136 82.8864 57.3068 84.1591 57.3068C85.4205 57.3068 86.5398 57.125 87.517 56.7614C88.5057 56.3977 89.3068 55.892 89.9205 55.2443C90.5341 54.5966 90.9091 53.8523 91.0455 53.0114C91.1818 52.2273 91.0625 51.5682 90.6875 51.0341C90.3125 50.5 89.7102 50.0455 88.8807 49.6705C88.0625 49.2841 87.0455 48.9432 85.8295 48.6477L82.1818 47.6932C79.3636 46.9773 77.233 45.858 75.7898 44.3352C74.3466 42.8125 73.8295 40.7614 74.2386 38.1818C74.6023 36.0682 75.483 34.2216 76.8807 32.642C78.2898 31.0511 80.0625 29.8182 82.1989 28.9432C84.3466 28.0568 86.6932 27.6136 89.2386 27.6136C91.8295 27.6136 94.017 28.0625 95.8011 28.9602C97.5852 29.8466 98.8864 31.0852 99.7045 32.6761C100.523 34.267 100.773 36.1193 100.455 38.233H93.3807ZM113.43 63.5114C110.737 63.5114 108.521 62.9432 106.783 61.8068C105.055 60.6591 103.845 59.0682 103.152 57.0341C102.47 55 102.351 52.6591 102.794 50.0114C103.226 47.3295 104.129 44.9773 105.504 42.9545C106.879 40.9205 108.624 39.3352 110.737 38.1989C112.862 37.0511 115.249 36.4773 117.896 36.4773C120.18 36.4773 122.112 36.892 123.692 37.7216C125.271 38.5511 126.43 39.7159 127.169 41.2159C127.908 42.7159 128.158 44.4773 127.919 46.5H121.084C121.095 45.2045 120.76 44.1534 120.078 43.3466C119.396 42.5398 118.396 42.1364 117.078 42.1364C115.942 42.1364 114.896 42.4432 113.942 43.0568C112.999 43.6591 112.197 44.5398 111.538 45.6989C110.891 46.858 110.436 48.2614 110.175 49.9091C109.902 51.5795 109.896 53 110.158 54.1705C110.419 55.3409 110.919 56.233 111.658 56.8466C112.396 57.4602 113.328 57.767 114.453 57.767C115.294 57.767 116.072 57.5966 116.788 57.2557C117.516 56.9148 118.152 56.4205 118.697 55.7727C119.243 55.1136 119.663 54.3239 119.959 53.4034H126.811C126.345 55.4148 125.499 57.1761 124.271 58.6875C123.055 60.1989 121.527 61.3807 119.686 62.233C117.845 63.0852 115.76 63.5114 113.43 63.5114ZM129.841 63L134.205 36.8182H141.244L140.477 41.3864H140.75C141.5 39.7614 142.506 38.5341 143.767 37.7045C145.04 36.8636 146.409 36.4432 147.875 36.4432C148.239 36.4432 148.619 36.4659 149.017 36.5114C149.426 36.5455 149.79 36.6023 150.108 36.6818L149.017 43.142C148.699 43.0284 148.244 42.9375 147.653 42.8693C147.074 42.7898 146.523 42.75 146 42.75C144.943 42.75 143.96 42.983 143.051 43.4489C142.142 43.9034 141.375 44.5398 140.75 45.358C140.136 46.1761 139.733 47.1193 139.54 48.1875L137.102 63H129.841ZM160.126 63.5114C157.445 63.5114 155.223 62.9659 153.462 61.875C151.7 60.7727 150.462 59.2159 149.746 57.2045C149.041 55.1818 148.922 52.7898 149.388 50.0284C149.842 47.3352 150.757 44.9716 152.132 42.9375C153.518 40.9034 155.257 39.3182 157.348 38.1818C159.439 37.0455 161.768 36.4773 164.337 36.4773C166.064 36.4773 167.626 36.7557 169.024 37.3125C170.433 37.858 171.604 38.6875 172.536 39.8011C173.467 40.9034 174.104 42.2841 174.445 43.9432C174.797 45.6023 174.791 47.5455 174.428 49.7727L174.104 51.767H152.013L152.712 47.267H167.984C168.155 46.2216 168.087 45.2955 167.78 44.4886C167.473 43.6818 166.962 43.0511 166.246 42.5966C165.53 42.1307 164.649 41.8977 163.604 41.8977C162.536 41.8977 161.536 42.1591 160.604 42.6818C159.672 43.2045 158.888 43.892 158.251 44.7443C157.626 45.5852 157.223 46.5 157.041 47.4886L156.24 51.9545C156.013 53.3295 156.058 54.4716 156.376 55.3807C156.706 56.2898 157.274 56.9716 158.081 57.4261C158.888 57.8693 159.911 58.0909 161.149 58.0909C161.956 58.0909 162.712 57.9773 163.416 57.75C164.132 57.5227 164.768 57.1875 165.325 56.7443C165.882 56.2898 166.337 55.7273 166.689 55.0568L173.32 55.5C172.706 57.1136 171.774 58.5227 170.524 59.7273C169.274 60.9205 167.768 61.8523 166.007 62.5227C164.257 63.1818 162.297 63.5114 160.126 63.5114ZM188.861 63.5114C186.179 63.5114 183.957 62.9659 182.196 61.875C180.435 60.7727 179.196 59.2159 178.48 57.2045C177.776 55.1818 177.656 52.7898 178.122 50.0284C178.577 47.3352 179.491 44.9716 180.866 42.9375C182.253 40.9034 183.991 39.3182 186.082 38.1818C188.173 37.0455 190.503 36.4773 193.071 36.4773C194.798 36.4773 196.361 36.7557 197.759 37.3125C199.168 37.858 200.338 38.6875 201.27 39.8011C202.202 40.9034 202.838 42.2841 203.179 43.9432C203.531 45.6023 203.526 47.5455 203.162 49.7727L202.838 51.767H180.747L181.446 47.267H196.719C196.889 46.2216 196.821 45.2955 196.514 44.4886C196.207 43.6818 195.696 43.0511 194.98 42.5966C194.264 42.1307 193.384 41.8977 192.338 41.8977C191.27 41.8977 190.27 42.1591 189.338 42.6818C188.406 43.2045 187.622 43.892 186.986 44.7443C186.361 45.5852 185.957 46.5 185.776 47.4886L184.974 51.9545C184.747 53.3295 184.793 54.4716 185.111 55.3807C185.44 56.2898 186.009 56.9716 186.815 57.4261C187.622 57.8693 188.645 58.0909 189.884 58.0909C190.69 58.0909 191.446 57.9773 192.151 57.75C192.866 57.5227 193.503 57.1875 194.06 56.7443C194.616 56.2898 195.071 55.7273 195.423 55.0568L202.054 55.5C201.44 57.1136 200.509 58.5227 199.259 59.7273C198.009 60.9205 196.503 61.8523 194.741 62.5227C192.991 63.1818 191.031 63.5114 188.861 63.5114ZM215.55 47.8636L213.027 63H205.783L210.146 36.8182H217.05L216.3 41.4375H216.589C217.419 39.9034 218.589 38.6932 220.101 37.8068C221.624 36.9205 223.357 36.4773 225.3 36.4773C227.118 36.4773 228.635 36.875 229.851 37.6705C231.078 38.4659 231.942 39.5966 232.442 41.0625C232.953 42.5284 233.038 44.2841 232.697 46.3295L229.902 63H222.641L225.214 47.625C225.476 46.0227 225.271 44.7727 224.601 43.875C223.942 42.9659 222.879 42.5114 221.413 42.5114C220.436 42.5114 219.538 42.7216 218.72 43.142C217.902 43.5625 217.214 44.1761 216.658 44.983C216.112 45.7784 215.743 46.7386 215.55 47.8636ZM235.727 63L241.523 28.0909H255.295C257.932 28.0909 260.102 28.5568 261.807 29.4886C263.523 30.4205 264.727 31.7443 265.42 33.4602C266.125 35.1648 266.29 37.1761 265.915 39.4943C265.528 41.8125 264.693 43.8011 263.409 45.4602C262.136 47.1193 260.477 48.3977 258.432 49.2955C256.398 50.1818 254.04 50.625 251.358 50.625H242.136L243.159 44.6932H251.17C252.58 44.6932 253.784 44.5 254.784 44.1136C255.784 43.7273 256.574 43.1477 257.153 42.375C257.744 41.6023 258.131 40.642 258.312 39.4943C258.506 38.3239 258.438 37.3466 258.108 36.5625C257.778 35.767 257.182 35.1648 256.318 34.7557C255.455 34.3352 254.318 34.125 252.909 34.125H247.932L243.108 63H235.727ZM257.205 47.1136L263.256 63H255.108L249.244 47.1136H257.205ZM278.814 63.5114C276.132 63.5114 273.911 62.9659 272.149 61.875C270.388 60.7727 269.149 59.2159 268.433 57.2045C267.729 55.1818 267.609 52.7898 268.075 50.0284C268.53 47.3352 269.445 44.9716 270.82 42.9375C272.206 40.9034 273.945 39.3182 276.036 38.1818C278.126 37.0455 280.456 36.4773 283.024 36.4773C284.751 36.4773 286.314 36.7557 287.712 37.3125C289.121 37.858 290.291 38.6875 291.223 39.8011C292.155 40.9034 292.791 42.2841 293.132 43.9432C293.484 45.6023 293.479 47.5455 293.115 49.7727L292.791 51.767H270.7L271.399 47.267H286.672C286.842 46.2216 286.774 45.2955 286.467 44.4886C286.161 43.6818 285.649 43.0511 284.933 42.5966C284.217 42.1307 283.337 41.8977 282.291 41.8977C281.223 41.8977 280.223 42.1591 279.291 42.6818C278.359 43.2045 277.575 43.892 276.939 44.7443C276.314 45.5852 275.911 46.5 275.729 47.4886L274.928 51.9545C274.7 53.3295 274.746 54.4716 275.064 55.3807C275.393 56.2898 275.962 56.9716 276.768 57.4261C277.575 57.8693 278.598 58.0909 279.837 58.0909C280.643 58.0909 281.399 57.9773 282.104 57.75C282.82 57.5227 283.456 57.1875 284.013 56.7443C284.57 56.2898 285.024 55.7273 285.376 55.0568L292.007 55.5C291.393 57.1136 290.462 58.5227 289.212 59.7273C287.962 60.9205 286.456 61.8523 284.695 62.5227C282.945 63.1818 280.984 63.5114 278.814 63.5114ZM303.082 63.4943C301.423 63.4943 299.986 63.2045 298.77 62.625C297.565 62.0341 296.679 61.1591 296.111 60C295.543 58.8409 295.401 57.4034 295.685 55.6875C295.935 54.233 296.406 53.017 297.099 52.0398C297.804 51.0511 298.662 50.2557 299.673 49.6534C300.685 49.0511 301.804 48.5909 303.031 48.2727C304.27 47.9545 305.548 47.7386 306.866 47.625C308.389 47.4659 309.628 47.3125 310.582 47.1648C311.548 47.017 312.27 46.8068 312.747 46.5341C313.224 46.25 313.514 45.8295 313.616 45.2727V45.1705C313.787 44.1023 313.588 43.2727 313.02 42.6818C312.463 42.0795 311.571 41.7784 310.344 41.7784C309.048 41.7784 307.946 42.0625 307.037 42.6307C306.139 43.1989 305.497 43.9205 305.111 44.7955L298.497 44.25C299.088 42.6591 299.98 41.2841 301.173 40.125C302.378 38.9545 303.827 38.0568 305.52 37.4318C307.213 36.7955 309.111 36.4773 311.213 36.4773C312.668 36.4773 314.026 36.6477 315.287 36.9886C316.56 37.3295 317.656 37.858 318.577 38.5739C319.509 39.2898 320.179 40.2102 320.588 41.3352C321.009 42.4489 321.094 43.7841 320.844 45.3409L317.895 63H311.009L311.622 59.3693H311.418C310.861 60.1875 310.179 60.9091 309.372 61.5341C308.565 62.1477 307.639 62.6307 306.594 62.983C305.548 63.3239 304.378 63.4943 303.082 63.4943ZM305.997 58.483C307.054 58.483 308.026 58.2727 308.912 57.8523C309.81 57.4205 310.548 56.8409 311.128 56.1136C311.719 55.3864 312.094 54.5625 312.253 53.642L312.696 50.8636C312.469 51.0114 312.139 51.142 311.707 51.2557C311.287 51.3693 310.827 51.4773 310.327 51.5795C309.838 51.6705 309.344 51.7557 308.844 51.8352C308.344 51.9034 307.895 51.9716 307.497 52.0398C306.622 52.1648 305.838 52.3636 305.145 52.6364C304.452 52.9091 303.889 53.2784 303.457 53.7443C303.026 54.1989 302.759 54.767 302.656 55.4489C302.497 56.4375 302.73 57.1932 303.355 57.7159C303.991 58.2273 304.872 58.483 305.997 58.483ZM333.142 63.4261C331.142 63.4261 329.42 62.9148 327.977 61.892C326.545 60.858 325.523 59.3409 324.909 57.3409C324.307 55.3295 324.25 52.8636 324.739 49.9432C325.239 46.9432 326.136 44.4489 327.432 42.4602C328.727 40.4602 330.261 38.9659 332.034 37.9773C333.807 36.9773 335.653 36.4773 337.574 36.4773C339.028 36.4773 340.205 36.7273 341.102 37.2273C342.011 37.7159 342.71 38.3295 343.199 39.0682C343.688 39.7955 344.028 40.5114 344.222 41.2159H344.443L346.642 28.0909H353.886L348.091 63H340.932L341.631 58.8068H341.324C340.869 59.5341 340.267 60.2557 339.517 60.9716C338.778 61.6761 337.881 62.2614 336.824 62.7273C335.778 63.1932 334.551 63.4261 333.142 63.4261ZM336.347 57.6477C337.506 57.6477 338.551 57.3295 339.483 56.6932C340.415 56.0455 341.199 55.142 341.835 53.983C342.472 52.8239 342.915 51.4659 343.165 49.9091C343.426 48.3523 343.432 47 343.182 45.8523C342.932 44.7045 342.443 43.8182 341.716 43.1932C341 42.5682 340.051 42.2557 338.869 42.2557C337.676 42.2557 336.619 42.5795 335.699 43.2273C334.79 43.875 334.034 44.7727 333.432 45.9205C332.841 47.0682 332.42 48.3977 332.17 49.9091C331.92 51.4318 331.903 52.7784 332.119 53.9489C332.335 55.108 332.795 56.017 333.5 56.6761C334.205 57.3239 335.153 57.6477 336.347 57.6477ZM365.908 63.5114C363.226 63.5114 361.004 62.9659 359.243 61.875C357.482 60.7727 356.243 59.2159 355.527 57.2045C354.822 55.1818 354.703 52.7898 355.169 50.0284C355.624 47.3352 356.538 44.9716 357.913 42.9375C359.3 40.9034 361.038 39.3182 363.129 38.1818C365.22 37.0455 367.55 36.4773 370.118 36.4773C371.845 36.4773 373.408 36.7557 374.805 37.3125C376.214 37.858 377.385 38.6875 378.317 39.8011C379.249 40.9034 379.885 42.2841 380.226 43.9432C380.578 45.6023 380.572 47.5455 380.209 49.7727L379.885 51.767H357.794L358.493 47.267H373.766C373.936 46.2216 373.868 45.2955 373.561 44.4886C373.254 43.6818 372.743 43.0511 372.027 42.5966C371.311 42.1307 370.43 41.8977 369.385 41.8977C368.317 41.8977 367.317 42.1591 366.385 42.6818C365.453 43.2045 364.669 43.892 364.033 44.7443C363.408 45.5852 363.004 46.5 362.822 47.4886L362.021 51.9545C361.794 53.3295 361.839 54.4716 362.158 55.3807C362.487 56.2898 363.055 56.9716 363.862 57.4261C364.669 57.8693 365.692 58.0909 366.93 58.0909C367.737 58.0909 368.493 57.9773 369.197 57.75C369.913 57.5227 370.55 57.1875 371.107 56.7443C371.663 56.2898 372.118 55.7273 372.47 55.0568L379.101 55.5C378.487 57.1136 377.555 58.5227 376.305 59.7273C375.055 60.9205 373.55 61.8523 371.788 62.5227C370.038 63.1818 368.078 63.5114 365.908 63.5114ZM382.778 63L387.142 36.8182H394.182L393.415 41.3864H393.688C394.438 39.7614 395.443 38.5341 396.705 37.7045C397.977 36.8636 399.347 36.4432 400.812 36.4432C401.176 36.4432 401.557 36.4659 401.955 36.5114C402.364 36.5455 402.727 36.6023 403.045 36.6818L401.955 43.142C401.636 43.0284 401.182 42.9375 400.591 42.8693C400.011 42.7898 399.46 42.75 398.938 42.75C397.881 42.75 396.898 42.983 395.989 43.4489C395.08 43.9034 394.312 44.5398 393.688 45.358C393.074 46.1761 392.67 47.1193 392.477 48.1875L390.04 63H382.778Z" fill="url(#paint1_linear_3_150)"/>
<defs>
<linearGradient id="paint0_linear_3_150" x1="124" y1="91" x2="337.19" y2="162.594" gradientUnits="userSpaceOnUse">
<stop stop-color="#1C4179"/>
<stop offset="0.163462" stop-color="#235095"/>
<stop offset="0.615385" stop-color="#13A0D3"/>
<stop offset="1" stop-color="#00E6FF"/>
</linearGradient>
<linearGradient id="paint1_linear_3_150" x1="40.4914" y1="2.87301e-06" x2="336.73" y2="233.505" gradientUnits="userSpaceOnUse">
<stop stop-color="#1C4179"/>
<stop offset="0.163462" stop-color="#235095"/>
<stop offset="0.615385" stop-color="#13A0D3"/>
<stop offset="1" stop-color="#00E6FF"/>
</linearGradient>
</defs>
</svg>
